<svg class="se_icon"
    xmlns="http://www.w3.org/2000/svg" viewBox="0 0 512 512" height="100%" width="100%">
    <g clip-path="url(#clip0)">
        <path d="M90.2401 186.85L75 216.52C74.7701 217.97 74.0701 223.34 77.4101 227.34C83.0801 234.12 95.4901 231.07 98.6501 226.93C99.3401 226.02 101.41 222.66 101.39 220.44C101.384 220.198 101.408 219.956 101.46 219.72C101.83 218.18 103.53 216.72 104.67 216.92C106.18 217.13 105.96 220 107.88 223.33C108.29 224.04 111.32 229.14 116.7 230.15C120.7 230.89 124.03 229.02 126.32 227.74C128.591 226.674 130.529 225.011 131.93 222.93C133.68 220.09 133.29 217.74 134.74 217.32C136.19 216.9 138 218.89 138.74 219.72C141.01 222.25 140.47 223.8 141.94 225.72C144.14 228.56 148.21 228.72 152.77 228.97C156.57 229.15 160.99 229.36 162.59 226.87C163.43 225.55 162.77 224.59 163.99 221.76C164.51 220.56 165.57 218.11 166.8 218.15C167.71 218.15 168.03 219.53 170.01 222.96C170.805 224.603 171.813 226.133 173.01 227.51C173.56 228.05 175.01 229.26 180.01 230.18C185.24 231.13 190.66 232.12 192.84 229.37C193.6 228.37 193.26 227.89 193.84 225.22C194.69 221.06 196.95 215.29 198.84 215.34C200.37 215.39 200.35 219 203.65 224.16C205.26 226.67 207.17 229.65 210.47 231.38C216.11 234.38 224.59 232.96 227.52 228.58C227.52 228.58 228.38 227.29 229.71 219.75C231.601 220.368 233.365 221.319 234.92 222.56C236.58 224.04 236.37 225.13 237.48 226.64C240.19 230.36 247.21 231.78 251.76 229.37C254.83 227.75 256.81 224.37 257.22 223.68C258.73 221.09 258.87 219.21 260.22 218.95C261.17 218.76 262.03 219.56 264.63 222.16C268.58 226.1 268.63 226.31 269.36 226.94C272.24 229.52 277.22 231.64 281.87 230.58C286.07 229.58 289 226.28 289.87 225.3C292.25 222.59 292.36 220.8 293.87 220.55C296.07 220.21 296.97 223.66 301.35 226.9C302.58 227.81 307.51 231.45 313.11 230.58C314.86 230.3 316.68 229.19 320.33 226.97C326.07 223.46 326.87 221.48 327.14 220.55C327.501 219.241 327.501 217.859 327.14 216.55L313.91 186.48L90.2401 186.85Z" class="highlight"></path>
        <path d="M130.28 277.05L128 344.05L156.49 361.72L157.06 274.81L130.28 277.05Z" class="highlight"></path>
        <path d="M358.55 400.87L396.33 362.39C396.33 362.39 431.6 406.49 497.33 488.62C493.42 493.95 485.64 502.77 474.89 503.62C461.63 504.62 451.1 492.95 446.01 487.41C426.86 466.58 397.7 438.11 358.55 400.87Z" class="highlight"></path>
        <path d="M446.08 51.08C448.419 51.08 450.663 52.0093 452.317 53.6633C453.971 55.3174 454.9 57.5608 454.9 59.9C454.9 62.2392 453.971 64.4826 452.317 66.1367C450.663 67.7908 448.419 68.72 446.08 68.72C444.921 68.7213 443.773 68.4942 442.702 68.0515C441.63 67.6088 440.657 66.9594 439.837 66.1402C439.017 65.3211 438.366 64.3483 437.922 63.2776C437.479 62.2069 437.25 61.0591 437.25 59.9C437.25 58.7409 437.479 57.5932 437.922 56.5224C438.366 55.4517 439.017 54.4789 439.837 53.6598C440.657 52.8406 441.63 52.1912 442.702 51.7485C443.773 51.3059 444.921 51.0787 446.08 51.08Z" class="highlight"></path>
        <path d="M446.08 86.38C448.419 86.38 450.663 87.3093 452.317 88.9633C453.971 90.6174 454.9 92.8608 454.9 95.2C454.902 96.9473 454.386 98.6558 453.416 100.109C452.447 101.563 451.068 102.696 449.454 103.366C447.84 104.036 446.064 104.211 444.35 103.871C442.636 103.53 441.062 102.689 439.826 101.454C438.591 100.218 437.75 98.644 437.409 96.9302C437.069 95.2164 437.245 93.4402 437.914 91.8263C438.584 90.2124 439.717 88.8335 441.171 87.864C442.624 86.8945 444.333 86.378 446.08 86.38Z" class="highlight"></path>
        <path d="M463.72 68.72C464.88 68.72 466.03 68.9487 467.101 69.3931C468.173 69.8375 469.147 70.4888 469.967 71.3098C470.787 72.1308 471.438 73.1054 471.881 74.1778C472.324 75.2503 472.551 76.3996 472.55 77.56C472.545 79.8993 471.612 82.1412 469.957 83.7944C468.302 85.4476 466.059 86.3774 463.72 86.38C461.381 86.38 459.137 85.4508 457.483 83.7967C455.829 82.1426 454.9 79.8992 454.9 77.56C454.899 76.4004 455.126 75.252 455.568 74.1802C456.011 73.1083 456.66 72.1342 457.479 71.3133C458.298 70.4925 459.271 69.8409 460.342 69.396C461.413 68.951 462.56 68.7213 463.72 68.72Z" class="highlight"></path>
        <path d="M428.42 68.72C429.58 68.72 430.729 68.9487 431.801 69.3931C432.873 69.8375 433.847 70.4888 434.667 71.3098C435.487 72.1308 436.138 73.1054 436.581 74.1778C437.024 75.2503 437.251 76.3996 437.25 77.56C437.247 79.9001 436.316 82.1435 434.66 83.7973C433.005 85.4511 430.76 86.38 428.42 86.38C426.081 86.38 423.837 85.4508 422.183 83.7967C420.529 82.1426 419.6 79.8992 419.6 77.56C419.6 75.219 420.529 72.9735 422.182 71.3162C423.836 69.659 426.079 68.7253 428.42 68.72Z" class="highlight"></path>
        <path d="M30.6201 40.51C31.7792 40.51 32.9269 40.7385 33.9976 41.1824C35.0684 41.6262 36.0411 42.2768 36.8603 43.0969C37.6794 43.9169 38.3289 44.8904 38.7715 45.9617C39.2142 47.0329 39.4414 48.1809 39.44 49.34C39.44 51.6792 38.5108 53.9226 36.8567 55.5767C35.2027 57.2308 32.9593 58.16 30.6201 58.16C28.2808 58.16 26.0374 57.2308 24.3834 55.5767C22.7293 53.9226 21.8 51.6792 21.8 49.34C21.8 46.9999 22.729 44.7555 24.3828 43.0998C26.0365 41.4441 28.2799 40.5127 30.6201 40.51Z" class="highlight"></path>
        <path d="M288 457.38C290.338 457.383 292.58 458.313 294.234 459.966C295.887 461.62 296.817 463.862 296.82 466.2C296.807 468.533 295.873 470.767 294.221 472.415C292.569 474.063 290.333 474.992 288 475C285.656 475 283.407 474.069 281.749 472.411C280.091 470.753 279.16 468.505 279.16 466.16C279.176 463.826 280.114 461.593 281.77 459.948C283.426 458.303 285.666 457.38 288 457.38Z" class="highlight"></path>
        <path d="M200 376C165.19 376.002 131.161 365.681 102.217 346.342C73.2725 327.004 50.7128 299.517 37.3907 267.357C24.0685 235.197 20.5823 199.808 27.3728 165.667C34.1634 131.526 50.9257 100.165 75.54 75.55C91.8835 59.2041 111.287 46.2377 132.642 37.3912C153.997 28.5448 176.885 23.9915 200 23.9915C223.115 23.9915 246.003 28.5448 267.358 37.3912C288.713 46.2377 308.117 59.2041 324.46 75.55C393.07 144.18 393.07 255.82 324.46 324.44C308.154 340.836 288.758 353.836 267.394 362.686C246.031 371.536 223.124 376.062 200 376ZM200 40C168.356 40.0008 137.423 49.3847 111.112 66.9652C84.8017 84.5456 64.2947 109.533 52.1846 138.768C40.0745 168.003 36.9052 200.172 43.0773 231.208C49.2495 262.244 64.4859 290.753 86.86 313.13C101.718 327.988 119.356 339.774 138.769 347.816C158.181 355.857 178.988 359.996 200 359.996C221.012 359.996 241.819 355.857 261.231 347.816C280.644 339.774 298.283 327.988 313.14 313.13C375.53 250.74 375.53 149.25 313.14 86.86C298.315 71.9583 280.683 60.1441 261.262 52.1007C241.842 44.0573 221.02 39.9444 200 40Z" fill="#4E4E4E"></path>
        <path d="M200 400C160.441 400.003 121.77 388.275 88.877 366.299C55.9839 344.323 30.3468 313.086 15.2078 276.539C0.0688667 239.992 -3.89183 199.776 3.82665 160.977C11.5451 122.179 30.5961 86.5405 58.57 58.57C77.1421 39.9956 99.191 25.2616 123.458 15.2091C147.724 5.15663 173.734 -0.017334 200 -0.017334C226.266 -0.017334 252.276 5.15663 276.542 15.2091C300.809 25.2616 322.858 39.9956 341.43 58.57C419.43 136.57 419.43 263.43 341.43 341.41C322.899 360.039 300.858 374.81 276.582 384.867C252.306 394.923 226.277 400.067 200 400ZM200 16C163.608 15.999 128.032 26.7899 97.7727 47.008C67.5132 67.2262 43.9287 95.9634 30.0018 129.586C16.0749 163.208 12.431 200.205 19.5311 235.898C26.6312 271.591 44.1562 304.377 69.89 330.11C104.405 364.603 151.204 383.98 200 383.98C248.796 383.98 295.595 364.603 330.11 330.11C401.85 258.36 401.85 141.63 330.11 69.89C313.063 52.7507 292.786 39.1628 270.453 29.9126C248.119 20.6623 224.173 15.9336 200 16Z" fill="#4E4E4E"></path>
        <path d="M368.05 398.67C366.999 398.671 365.958 398.465 364.987 398.063C364.016 397.661 363.134 397.073 362.39 396.33L318.33 352.26C317.008 350.728 316.316 348.753 316.392 346.731C316.469 344.709 317.309 342.791 318.742 341.364C320.176 339.937 322.098 339.105 324.12 339.038C326.142 338.97 328.114 339.671 329.64 341L373.7 385C374.816 386.119 375.576 387.543 375.883 389.093C376.191 390.643 376.033 392.249 375.428 393.71C374.824 395.17 373.801 396.418 372.487 397.297C371.174 398.177 369.63 398.647 368.05 398.65V398.67Z" fill="#4E4E4E"></path>
        <path d="M390.67 376.05C389.616 376.056 388.572 375.851 387.598 375.447C386.624 375.044 385.741 374.45 385 373.7L340.9 329.59C339.399 328.09 338.555 326.055 338.554 323.933C338.553 321.811 339.395 319.776 340.895 318.275C342.395 316.774 344.43 315.93 346.551 315.929C348.673 315.928 350.709 316.77 352.21 318.27L396.33 362.39C397.45 363.509 398.213 364.935 398.522 366.487C398.831 368.04 398.673 369.65 398.067 371.112C397.461 372.575 396.435 373.825 395.118 374.704C393.801 375.583 392.253 376.051 390.67 376.05Z" fill="#4E4E4E"></path>
        <path d="M356.73 410C355.15 409.997 353.606 409.527 352.293 408.647C350.98 407.768 349.956 406.52 349.352 405.06C348.748 403.599 348.589 401.993 348.897 400.443C349.204 398.893 349.964 397.469 351.08 396.35L396.33 351.08C397.831 349.58 399.867 348.738 401.989 348.739C404.111 348.74 406.145 349.584 407.645 351.085C409.145 352.586 409.987 354.621 409.986 356.743C409.985 358.865 409.141 360.9 407.64 362.4L362.39 407.66C361.647 408.403 360.764 408.992 359.793 409.393C358.822 409.795 357.781 410.001 356.73 410Z" fill="#4E4E4E"></path>
        <path d="M449.38 502.63C448.328 502.629 447.287 502.422 446.316 502.018C445.345 501.615 444.463 501.024 443.72 500.28L351.08 407.64C349.643 406.127 348.854 404.113 348.881 402.027C348.907 399.941 349.748 397.948 351.223 396.473C352.698 394.998 354.691 394.157 356.777 394.13C358.864 394.104 360.878 394.893 362.39 396.33L455 489C456.12 490.118 456.882 491.543 457.192 493.095C457.501 494.647 457.344 496.255 456.739 497.718C456.134 499.18 455.109 500.43 453.794 501.31C452.479 502.189 450.932 502.659 449.35 502.66L449.38 502.63Z" fill="#4E4E4E"></path>
        <path d="M494.62 457.38C492.506 457.36 490.485 456.505 489 455L396.36 362.34C394.859 360.84 394.015 358.805 394.014 356.683C394.013 354.561 394.855 352.526 396.355 351.025C397.855 349.524 399.89 348.68 402.012 348.679C404.133 348.678 406.169 349.52 407.67 351.02L500.31 443.69C501.427 444.809 502.187 446.234 502.494 447.785C502.801 449.336 502.642 450.944 502.036 452.404C501.431 453.865 500.406 455.113 499.091 455.991C497.777 456.87 496.231 457.339 494.65 457.34L494.62 457.38Z" fill="#4E4E4E"></path>
        <path d="M472 512C466.744 512.013 461.537 510.984 456.681 508.973C451.826 506.961 447.417 504.006 443.71 500.28C442.386 498.751 441.69 496.776 441.763 494.754C441.836 492.733 442.672 490.813 444.103 489.383C445.534 487.954 447.454 487.119 449.476 487.048C451.498 486.977 453.472 487.674 455 489C464.06 498.06 479.87 498.08 488.93 489C493.424 484.5 495.949 478.4 495.949 472.04C495.949 465.68 493.424 459.58 488.93 455.08C488.155 454.346 487.534 453.464 487.105 452.486C486.676 451.508 486.447 450.455 486.431 449.387C486.416 448.319 486.614 447.259 487.015 446.27C487.415 445.28 488.01 444.38 488.763 443.624C489.517 442.868 490.415 442.27 491.403 441.866C492.391 441.462 493.451 441.259 494.518 441.271C495.586 441.283 496.641 441.508 497.62 441.934C498.599 442.36 499.483 442.977 500.22 443.75C505.799 449.342 509.597 456.46 511.135 464.208C512.674 471.955 511.885 479.985 508.866 487.284C505.848 494.584 500.737 500.826 494.176 505.225C487.615 509.623 479.899 511.98 472 512Z" fill="#4E4E4E"></path>
        <path d="M88 240C81.6348 240 75.5303 237.471 71.0295 232.971C66.5286 228.47 64 222.365 64 216C64 213.878 64.8429 211.843 66.3432 210.343C67.8435 208.843 69.8783 208 72 208C74.1218 208 76.1566 208.843 77.6569 210.343C79.1572 211.843 80 213.878 80 216C80 218.122 80.8429 220.157 82.3432 221.657C83.8435 223.157 85.8783 224 88 224C90.1218 224 92.1566 223.157 93.6569 221.657C95.1572 220.157 96 218.122 96 216C96 213.878 96.8429 211.843 98.3432 210.343C99.8435 208.843 101.878 208 104 208C106.122 208 108.157 208.843 109.657 210.343C111.157 211.843 112 213.878 112 216C112 222.365 109.471 228.47 104.971 232.971C100.47 237.471 94.3652 240 88 240Z" fill="#4E4E4E"></path>
        <path d="M120 240C113.635 240 107.53 237.471 103.029 232.971C98.5286 228.47 96 222.365 96 216C96 213.878 96.8429 211.843 98.3432 210.343C99.8435 208.843 101.878 208 104 208C106.122 208 108.157 208.843 109.657 210.343C111.157 211.843 112 213.878 112 216C112 218.122 112.843 220.157 114.343 221.657C115.843 223.157 117.878 224 120 224C122.122 224 124.157 223.157 125.657 221.657C127.157 220.157 128 218.122 128 216C128 213.878 128.843 211.843 130.343 210.343C131.843 208.843 133.878 208 136 208C138.122 208 140.157 208.843 141.657 210.343C143.157 211.843 144 213.878 144 216C144 222.365 141.471 228.47 136.971 232.971C132.47 237.471 126.365 240 120 240Z" fill="#4E4E4E"></path>
        <path d="M152 240C145.635 240 139.53 237.471 135.029 232.971C130.529 228.47 128 222.365 128 216C128 213.878 128.843 211.843 130.343 210.343C131.843 208.843 133.878 208 136 208C138.122 208 140.157 208.843 141.657 210.343C143.157 211.843 144 213.878 144 216C144 218.122 144.843 220.157 146.343 221.657C147.843 223.157 149.878 224 152 224C154.122 224 156.157 223.157 157.657 221.657C159.157 220.157 160 218.122 160 216C160 213.878 160.843 211.843 162.343 210.343C163.843 208.843 165.878 208 168 208C170.122 208 172.157 208.843 173.657 210.343C175.157 211.843 176 213.878 176 216C176 222.365 173.471 228.47 168.971 232.971C164.47 237.471 158.365 240 152 240Z" fill="#4E4E4E"></path>
        <path d="M184 240C177.635 240 171.53 237.471 167.029 232.971C162.529 228.47 160 222.365 160 216C160 213.878 160.843 211.843 162.343 210.343C163.843 208.843 165.878 208 168 208C170.122 208 172.157 208.843 173.657 210.343C175.157 211.843 176 213.878 176 216C176 218.122 176.843 220.157 178.343 221.657C179.843 223.157 181.878 224 184 224C186.122 224 188.157 223.157 189.657 221.657C191.157 220.157 192 218.122 192 216C192 213.878 192.843 211.843 194.343 210.343C195.843 208.843 197.878 208 200 208C202.122 208 204.157 208.843 205.657 210.343C207.157 211.843 208 213.878 208 216C208 222.365 205.471 228.47 200.971 232.971C196.47 237.471 190.365 240 184 240Z" fill="#4E4E4E"></path>
        <path d="M216 240C209.635 240 203.53 237.471 199.029 232.971C194.529 228.47 192 222.365 192 216C192 213.878 192.843 211.843 194.343 210.343C195.843 208.843 197.878 208 200 208C202.122 208 204.157 208.843 205.657 210.343C207.157 211.843 208 213.878 208 216C208 218.122 208.843 220.157 210.343 221.657C211.843 223.157 213.878 224 216 224C218.122 224 220.157 223.157 221.657 221.657C223.157 220.157 224 218.122 224 216C224 213.878 224.843 211.843 226.343 210.343C227.843 208.843 229.878 208 232 208C234.122 208 236.157 208.843 237.657 210.343C239.157 211.843 240 213.878 240 216C240 222.365 237.471 228.47 232.971 232.971C228.47 237.471 222.365 240 216 240Z" fill="#4E4E4E"></path>
        <path d="M248 240C241.635 240 235.53 237.471 231.029 232.971C226.529 228.47 224 222.365 224 216C224 213.878 224.843 211.843 226.343 210.343C227.843 208.843 229.878 208 232 208C234.122 208 236.157 208.843 237.657 210.343C239.157 211.843 240 213.878 240 216C240 218.122 240.843 220.157 242.343 221.657C243.843 223.157 245.878 224 248 224C250.122 224 252.157 223.157 253.657 221.657C255.157 220.157 256 218.122 256 216C256 213.878 256.843 211.843 258.343 210.343C259.844 208.843 261.878 208 264 208C266.122 208 268.157 208.843 269.657 210.343C271.157 211.843 272 213.878 272 216C272 222.365 269.471 228.47 264.971 232.971C260.47 237.471 254.365 240 248 240Z" fill="#4E4E4E"></path>
        <path d="M280 240C273.635 240 267.53 237.471 263.029 232.971C258.529 228.47 256 222.365 256 216C256 213.878 256.843 211.843 258.343 210.343C259.844 208.843 261.878 208 264 208C266.122 208 268.157 208.843 269.657 210.343C271.157 211.843 272 213.878 272 216C272 218.122 272.843 220.157 274.343 221.657C275.843 223.157 277.878 224 280 224C282.122 224 284.157 223.157 285.657 221.657C287.157 220.157 288 218.122 288 216C288 213.878 288.843 211.843 290.343 210.343C291.843 208.843 293.878 208 296 208C298.122 208 300.157 208.843 301.657 210.343C303.157 211.843 304 213.878 304 216C304 222.365 301.471 228.47 296.971 232.971C292.47 237.471 286.365 240 280 240Z" fill="#4E4E4E"></path>
        <path d="M312 240C305.635 240 299.53 237.471 295.029 232.971C290.529 228.47 288 222.365 288 216C288 213.878 288.843 211.843 290.343 210.343C291.843 208.843 293.878 208 296 208C298.122 208 300.157 208.843 301.657 210.343C303.157 211.843 304 213.878 304 216C304 218.122 304.843 220.157 306.343 221.657C307.843 223.157 309.878 224 312 224C314.122 224 316.157 223.157 317.657 221.657C319.157 220.157 320 218.122 320 216C320 213.878 320.843 211.843 322.343 210.343C323.843 208.843 325.878 208 328 208C330.122 208 332.157 208.843 333.657 210.343C335.157 211.843 336 213.878 336 216C336 222.365 333.471 228.47 328.971 232.971C324.47 237.471 318.365 240 312 240Z" fill="#4E4E4E"></path>
        <path d="M88 333.21C85.8783 333.21 83.8435 332.367 82.3432 330.867C80.8429 329.367 80 327.332 80 325.21V232C80 229.878 80.8429 227.843 82.3432 226.343C83.8435 224.843 85.8783 224 88 224C90.1218 224 92.1566 224.843 93.6569 226.343C95.1572 227.843 96 229.878 96 232V325.21C96 327.332 95.1572 329.367 93.6569 330.867C92.1566 332.367 90.1218 333.21 88 333.21Z" fill="#4E4E4E"></path>
        <path d="M312 333.21C309.878 333.21 307.843 332.367 306.343 330.867C304.843 329.367 304 327.332 304 325.21V232C304 229.878 304.843 227.843 306.343 226.343C307.843 224.843 309.878 224 312 224C314.122 224 316.157 224.843 317.657 226.343C319.157 227.843 320 229.878 320 232V325.21C320 327.332 319.157 329.367 317.657 330.867C316.157 332.367 314.122 333.21 312 333.21Z" fill="#4E4E4E"></path>
        <path d="M72 224C70.6388 223.997 69.3008 223.646 68.1129 222.981C66.9249 222.317 65.9262 221.36 65.2113 220.201C64.4964 219.043 64.0889 217.721 64.0275 216.361C63.966 215.001 64.2526 213.648 64.86 212.43L80.86 180.43C81.3302 179.49 81.9808 178.653 82.7747 177.964C83.5686 177.276 84.4903 176.751 85.4871 176.419C86.484 176.087 87.5364 175.955 88.5844 176.03C89.6324 176.104 90.6554 176.385 91.595 176.855C92.5347 177.325 93.3725 177.976 94.0606 178.77C94.7488 179.564 95.2739 180.485 95.6058 181.482C95.9378 182.479 96.0702 183.531 95.9954 184.579C95.9206 185.627 95.6402 186.65 95.17 187.59L79.17 219.59C78.5028 220.919 77.4785 222.035 76.212 222.814C74.9455 223.593 73.4869 224.004 72 224Z" fill="#4E4E4E"></path>
        <path d="M328 224C326.511 224.002 325.051 223.588 323.784 222.806C322.518 222.023 321.494 220.902 320.83 219.57L304.83 187.57C303.881 185.672 303.724 183.475 304.394 181.462C305.065 179.449 306.507 177.784 308.405 176.835C310.303 175.885 312.5 175.729 314.513 176.399C316.526 177.07 318.191 178.512 319.14 180.41L335.14 212.41C335.611 213.35 335.892 214.374 335.967 215.423C336.041 216.471 335.909 217.525 335.576 218.522C335.244 219.52 334.718 220.442 334.029 221.236C333.34 222.03 332.501 222.68 331.56 223.15C330.457 223.711 329.237 224.002 328 224Z" fill="#4E4E4E"></path>
        <path d="M312 192H88C85.8783 192 83.8435 191.157 82.3432 189.657C80.8429 188.157 80 186.122 80 184C80 181.878 80.8429 179.843 82.3432 178.343C83.8435 176.843 85.8783 176 88 176H312C314.122 176 316.157 176.843 317.657 178.343C319.157 179.843 320 181.878 320 184C320 186.122 319.157 188.157 317.657 189.657C316.157 191.157 314.122 192 312 192Z" fill="#4E4E4E"></path>
        <path d="M88 192C85.8783 192 83.8435 191.157 82.3432 189.657C80.8429 188.157 80 186.122 80 184V160C80 157.878 80.8429 155.843 82.3432 154.343C83.8435 152.843 85.8783 152 88 152C90.1218 152 92.1566 152.843 93.6569 154.343C95.1572 155.843 96 157.878 96 160V184C96 186.122 95.1572 188.157 93.6569 189.657C92.1566 191.157 90.1218 192 88 192Z" fill="#4E4E4E"></path>
        <path d="M312 168H88C85.8783 168 83.8435 167.157 82.3432 165.657C80.8429 164.157 80 162.122 80 160C80 157.878 80.8429 155.843 82.3432 154.343C83.8435 152.843 85.8783 152 88 152H312C314.122 152 316.157 152.843 317.657 154.343C319.157 155.843 320 157.878 320 160C320 162.122 319.157 164.157 317.657 165.657C316.157 167.157 314.122 168 312 168Z" fill="#4E4E4E"></path>
        <path d="M312 192C309.878 192 307.843 191.157 306.343 189.657C304.843 188.157 304 186.122 304 184V160C304 157.878 304.843 155.843 306.343 154.343C307.843 152.843 309.878 152 312 152C314.122 152 316.157 152.843 317.657 154.343C319.157 155.843 320 157.878 320 160V184C320 186.122 319.157 188.157 317.657 189.657C316.157 191.157 314.122 192 312 192Z" fill="#4E4E4E"></path>
        <path d="M120 355.77C117.878 355.77 115.843 354.927 114.343 353.427C112.843 351.926 112 349.892 112 347.77V272C112 269.878 112.843 267.843 114.343 266.343C115.843 264.843 117.878 264 120 264C122.122 264 124.157 264.843 125.657 266.343C127.157 267.843 128 269.878 128 272V347.77C128 349.892 127.157 351.926 125.657 353.427C124.157 354.927 122.122 355.77 120 355.77Z" fill="#4E4E4E"></path>
        <path d="M160 280H120C117.878 280 115.843 279.157 114.343 277.657C112.843 276.156 112 274.122 112 272C112 269.878 112.843 267.843 114.343 266.343C115.843 264.843 117.878 264 120 264H160C162.122 264 164.157 264.843 165.657 266.343C167.157 267.843 168 269.878 168 272C168 274.122 167.157 276.156 165.657 277.657C164.157 279.157 162.122 280 160 280Z" fill="#4E4E4E"></path>
        <path d="M160 371.18C157.878 371.18 155.843 370.337 154.343 368.837C152.843 367.336 152 365.302 152 363.18V272C152 269.878 152.843 267.843 154.343 266.343C155.843 264.843 157.878 264 160 264C162.122 264 164.157 264.843 165.657 266.343C167.157 267.843 168 269.878 168 272V363.18C168 365.302 167.157 367.336 165.657 368.837C164.157 370.337 162.122 371.18 160 371.18Z" fill="#4E4E4E"></path>
        <path d="M280 328H192C189.878 328 187.843 327.157 186.343 325.657C184.843 324.156 184 322.122 184 320V272C184 269.878 184.843 267.843 186.343 266.343C187.843 264.843 189.878 264 192 264H280C282.122 264 284.157 264.843 285.657 266.343C287.157 267.843 288 269.878 288 272V320C288 322.122 287.157 324.156 285.657 325.657C284.157 327.157 282.122 328 280 328ZM200 312H272V280H200V312Z" fill="#4E4E4E"></path>
    </g>
    <defs>
        <clipPath id="clip0">
            <rect width="512" height="512" fill="white"></rect>
        </clipPath>
    </defs>
</svg>