<svg class="se_icon"
    xmlns="http://www.w3.org/2000/svg" viewBox="0 0 512 512" height="100%" width="100%">
    <path d="M189.486 7.63013L147.693 62.9001L80.9438 78.7501L120.015 132.81L115.084 201.81L178.102 180.19L242.891 209.19L243.891 140.01L289.545 86.7701L224.986 75.5701C213.162 52.9235 201.329 30.2768 189.486 7.63013Z" class="highlight"></path>
    <path d="M397.477 33.4401L378.801 63.7001L346.412 74.3501L367.638 101.07V137.16L398.037 123.64L431.046 136.39C430.379 124.39 429.713 112.39 429.046 100.39L449.732 71.0001L417.442 67.5001L397.477 33.4401Z" class="highlight"></path>
    <path d="M290.455 245.31L330.297 179.84L338.009 179.17L376.57 247.31L443.41 262.67C445.443 264.042 447.175 265.814 448.501 267.877C449.827 269.94 450.719 272.251 451.122 274.67C451.807 279.372 450.654 284.157 447.901 288.03L406.129 334.79C408.063 346.79 409.99 358.813 411.911 370.86L397.136 388.26C394.667 389.871 391.716 390.578 388.784 390.26C382.932 389.45 377.911 383.84 376.57 376.26H280.172C274.677 372.72 269.106 368.937 263.457 364.91C261.277 363.35 259.136 361.79 257.035 360.23L264.107 340.86L212.092 273.39C212.618 270.09 214.193 267.046 216.583 264.71C219.026 262.368 222.21 260.953 225.586 260.71L290.455 245.31Z" class="highlight"></path>
    <path d="M68.2701 284.77C67.0993 284.757 65.9374 284.975 64.8509 285.411C63.7644 285.847 62.7747 286.494 61.9385 287.313C61.1022 288.132 60.4359 289.108 59.9775 290.186C59.5192 291.263 59.2779 292.42 59.2674 293.59C59.2779 294.761 59.5192 295.918 59.9775 296.995C60.4359 298.072 61.1022 299.048 61.9385 299.867C62.7747 300.686 63.7644 301.333 64.8509 301.769C65.9374 302.206 67.0993 302.423 68.2701 302.41C69.4405 302.422 70.6018 302.203 71.6877 301.766C72.7736 301.33 73.7627 300.683 74.5987 299.864C75.4347 299.045 76.1011 298.07 76.5599 296.993C77.0187 295.917 77.2609 294.76 77.2727 293.59C77.2609 292.42 77.0187 291.264 76.5599 290.187C76.1011 289.111 75.4347 288.135 74.5987 287.316C73.7627 286.497 72.7736 285.851 71.6877 285.414C70.6018 284.977 69.4405 284.758 68.2701 284.77Z" class="highlight"></path>
    <path d="M68.2701 320.07C67.0993 320.057 65.9374 320.275 64.8509 320.711C63.7644 321.147 62.7747 321.794 61.9385 322.613C61.1022 323.432 60.4359 324.408 59.9775 325.486C59.5192 326.563 59.2779 327.72 59.2674 328.89C59.2317 330.677 59.7291 332.435 60.6963 333.938C61.6636 335.442 63.0568 336.623 64.6983 337.332C66.3398 338.041 68.1554 338.245 69.9134 337.919C71.6714 337.592 73.2923 336.749 74.5695 335.498C75.8466 334.247 76.722 332.644 77.0843 330.893C77.4465 329.143 77.279 327.324 76.6032 325.669C75.9275 324.014 74.774 322.597 73.2899 321.6C71.8057 320.603 70.0582 320.07 68.2701 320.07Z" class="highlight"></path>
    <path d="M50.3048 302.41C47.9401 302.389 45.6636 303.307 43.9755 304.963C42.2875 306.618 41.3259 308.876 41.3022 311.24C41.3259 313.604 42.2875 315.862 43.9755 317.518C45.6636 319.173 47.9401 320.091 50.3048 320.07C51.4764 320.083 52.6391 319.865 53.7262 319.428C54.8134 318.991 55.8035 318.344 56.6399 317.524C57.4763 316.703 58.1424 315.726 58.6002 314.648C59.0579 313.569 59.2983 312.411 59.3074 311.24C59.2837 308.876 58.3221 306.618 56.6341 304.963C54.946 303.307 52.6695 302.389 50.3048 302.41Z" class="highlight"></path>
    <path d="M86.2553 302.41C85.084 302.398 83.9219 302.617 82.8354 303.055C81.7489 303.492 80.7593 304.139 79.9231 304.96C79.087 305.78 78.4208 306.756 77.9626 307.834C77.5044 308.912 77.2631 310.069 77.2527 311.24C77.2631 312.411 77.5044 313.568 77.9626 314.646C78.4208 315.724 79.087 316.701 79.9231 317.521C80.7593 318.341 81.7489 318.988 82.8354 319.426C83.9219 319.863 85.084 320.082 86.2553 320.07C87.4269 320.083 88.5897 319.865 89.6768 319.428C90.7639 318.991 91.754 318.344 92.5904 317.524C93.4268 316.703 94.093 315.726 94.5507 314.648C95.0085 313.569 95.2488 312.411 95.258 311.24C95.2342 308.876 94.2727 306.618 92.5846 304.963C90.8965 303.307 88.6201 302.389 86.2553 302.41Z" class="highlight"></path>
    <path d="M469.988 170.35C468.816 170.338 467.654 170.557 466.568 170.995C465.481 171.432 464.492 172.079 463.656 172.9C462.819 173.72 462.153 174.696 461.695 175.774C461.237 176.852 460.996 178.009 460.985 179.18C460.996 180.351 461.237 181.508 461.695 182.585C462.154 183.662 462.82 184.638 463.656 185.457C464.492 186.276 465.482 186.923 466.569 187.359C467.655 187.796 468.817 188.013 469.988 188C471.159 188.013 472.32 187.796 473.407 187.359C474.493 186.923 475.483 186.276 476.319 185.457C477.156 184.638 477.822 183.662 478.28 182.585C478.739 181.508 478.98 180.351 478.99 179.18C478.98 178.009 478.739 176.852 478.28 175.774C477.822 174.696 477.156 173.72 476.32 172.9C475.484 172.079 474.494 171.432 473.408 170.995C472.321 170.557 471.159 170.338 469.988 170.35Z" class="highlight"></path>
    <path d="M32.3095 24.6101C29.9465 24.5888 27.6715 25.5055 25.9837 27.159C24.296 28.8125 23.3333 31.0679 23.3069 33.4301C23.3333 35.7933 24.2957 38.0497 25.9831 39.7048C27.6706 41.3599 29.9456 42.2788 32.3095 42.2601C33.4808 42.272 34.6429 42.0529 35.7294 41.6155C36.816 41.178 37.8056 40.5308 38.6417 39.7107C39.4778 38.8906 40.144 37.9138 40.6022 36.8361C41.0605 35.7585 41.3017 34.6011 41.3122 33.4301C41.2858 31.0679 40.3231 28.8125 38.6353 27.159C36.9475 25.5055 34.6725 24.5888 32.3095 24.6101Z" class="highlight"></path>
    <path d="M107.451 140.53C108.291 141.415 108.91 142.486 109.258 143.656C109.605 144.825 109.672 146.06 109.452 147.26L101.84 193.34C101.041 197.894 101.547 202.581 103.3 206.859C105.052 211.138 107.979 214.834 111.743 217.52C115.24 220.043 119.382 221.522 123.687 221.784C127.992 222.046 132.282 221.08 136.06 219L176.452 196.95C177.312 196.473 178.279 196.223 179.263 196.223C180.246 196.223 181.213 196.473 182.073 196.95L222.465 219C226.236 221.078 230.519 222.045 234.817 221.79C239.115 221.535 243.253 220.069 246.752 217.56C250.521 214.875 253.451 211.178 255.203 206.897C256.956 202.616 257.459 197.926 256.655 193.37L249.053 147.29C248.826 146.092 248.889 144.856 249.237 143.687C249.585 142.518 250.208 141.449 251.054 140.57L283.063 108.08C286.281 104.809 288.526 100.708 289.547 96.2349C290.568 91.7618 290.325 87.093 288.845 82.7501C287.52 78.5636 285.055 74.8285 281.727 71.9636C278.398 69.0988 274.337 67.2173 269.999 66.5301L225.366 59.8001C224.307 59.6148 223.31 59.171 222.464 58.5081C221.618 57.8452 220.948 56.9838 220.515 56.0001L200.379 13.6101C198.538 9.55401 195.568 6.11379 191.823 3.70102C188.079 1.28826 183.718 0.00512695 179.263 0.00512695C174.807 0.00512695 170.447 1.28826 166.702 3.70102C162.957 6.11379 159.987 9.55401 158.146 13.6101L137.96 56.0001C137.527 56.9838 136.857 57.8452 136.011 58.5081C135.165 59.171 134.168 59.6148 133.109 59.8001L88.4359 66.5201C84.1 67.2101 80.0417 69.0928 76.7151 71.9574C73.3886 74.822 70.9251 78.5555 69.6004 82.7401C68.1189 87.0837 67.8741 91.7534 68.8933 96.228C69.9125 100.703 72.1555 104.806 75.3721 108.08L107.451 140.53ZM85.7951 88.0901C86.1347 86.9109 86.7968 85.8499 87.707 85.0266C88.6171 84.2033 89.7391 83.6504 90.9466 83.4301L135.69 76.6801C139.513 76.0751 143.129 74.5404 146.22 72.2108C149.31 69.8812 151.781 66.8282 153.415 63.3201L173.561 20.8901C174.015 19.7505 174.8 18.7732 175.816 18.0847C176.832 17.3962 178.03 17.0282 179.258 17.0282C180.485 17.0282 181.683 17.3962 182.699 18.0847C183.715 18.7732 184.5 19.7505 184.954 20.8901L205.11 63.3201C206.735 66.8209 209.195 69.8697 212.273 72.199C215.351 74.5282 218.954 76.067 222.765 76.6801L267.468 83.4301C268.684 83.6452 269.815 84.1954 270.734 85.0188C271.653 85.8422 272.323 86.906 272.67 88.0901C273.154 89.4512 273.25 90.9198 272.948 92.3323C272.646 93.7448 271.957 95.0458 270.959 96.0901L238.99 128.54C236.25 131.331 234.207 134.729 233.027 138.458C231.846 142.187 231.563 146.141 232.198 150L239.81 196.08C240.088 197.48 239.96 198.929 239.44 200.258C238.921 201.587 238.033 202.74 236.879 203.58C235.992 204.243 234.931 204.632 233.825 204.699C232.72 204.767 231.619 204.51 230.658 203.96L190.256 181.88C186.883 180.031 183.099 179.062 179.253 179.062C175.406 179.062 171.622 180.031 168.249 181.88L127.877 204C126.917 204.552 125.815 204.811 124.71 204.743C123.604 204.676 122.542 204.285 121.656 203.62C120.501 202.783 119.612 201.632 119.092 200.304C118.573 198.977 118.445 197.528 118.725 196.13L126.327 150.04C126.976 146.183 126.704 142.227 125.535 138.494C124.365 134.761 122.33 131.358 119.595 128.56L87.5256 96.0501C86.5295 95.0128 85.8405 93.7198 85.535 92.3147C85.2295 90.9095 85.3196 89.4472 85.7951 88.0901Z" fill="#4E4E4E"></path>
    <path d="M348.292 105.07C348.387 105.19 348.455 105.329 348.491 105.477C348.527 105.626 348.531 105.78 348.502 105.93L344.021 132.82C343.438 136.133 343.807 139.544 345.085 142.656C346.364 145.768 348.499 148.453 351.243 150.4C353.825 152.253 356.878 153.336 360.051 153.526C363.223 153.715 366.384 153.002 369.168 151.47L392.595 138.59L416.152 151.47C418.936 153.002 422.097 153.715 425.269 153.526C428.442 153.336 431.495 152.253 434.077 150.4C436.823 148.455 438.959 145.77 440.236 142.657C441.513 139.544 441.878 136.133 441.289 132.82L436.868 105.93C436.833 105.781 436.833 105.626 436.868 105.477C436.903 105.328 436.971 105.189 437.068 105.07L455.804 86.1501C458.153 83.775 459.795 80.7932 460.546 77.5383C461.296 74.2835 461.126 70.8839 460.055 67.7201C459.069 64.6648 457.254 61.9434 454.811 59.8597C452.368 57.776 449.394 56.4121 446.221 55.9201L420.043 51.7401L408.24 27.0001C406.88 24.022 404.693 21.4974 401.939 19.7271C399.185 17.9568 395.979 17.0156 392.705 17.0156C389.431 17.0156 386.225 17.9568 383.471 19.7271C380.717 21.4974 378.53 24.022 377.171 27.0001L365.237 52.0001L339.169 56.0001C335.998 56.4879 333.024 57.8466 330.58 59.9248C328.135 62.003 326.316 64.719 325.325 67.7701C324.247 70.9263 324.067 74.3199 324.805 77.5725C325.543 80.825 327.171 83.8085 329.507 86.1901L348.292 105.07ZM341.71 72.7901L367.788 68.8501C370.591 68.4091 373.242 67.2867 375.51 65.5814C377.777 63.8761 379.591 61.6402 380.792 59.0701L392.655 34.0701C392.723 34.1373 392.775 34.2195 392.805 34.3101L404.569 59.0601C405.767 61.6331 407.579 63.8719 409.847 65.5792C412.115 67.2865 414.768 68.4098 417.572 68.8501L443.65 72.7801V74.1301L424.924 93.1301C422.943 95.1645 421.468 97.6369 420.62 100.347C419.772 103.057 419.574 105.929 420.043 108.73L424.474 135.63C424.505 135.778 424.505 135.93 424.476 136.077C424.447 136.225 424.389 136.365 424.304 136.49L400.767 123.63C398.281 122.267 395.491 121.553 392.655 121.553C389.819 121.553 387.029 122.267 384.543 123.63L361.176 136.5C361.176 136.5 360.746 136.33 360.866 135.59L365.307 108.69C365.78 105.885 365.582 103.008 364.728 100.295C363.875 97.5815 362.39 95.109 360.396 93.0801L341.7 74.1401L335.618 80.1401L341.71 72.7901Z" fill="#4E4E4E"></path>
    <path d="M8.5325 494.93C10.4906 494.941 12.3933 494.281 13.9241 493.06C15.6846 491.65 57.1667 458.43 74.3718 441.22C141.001 374.6 190.406 366.92 221.785 366.92C233.628 366.85 245.116 370.962 254.224 378.53C258.693 382.121 264.267 384.054 269.999 384H356.935C361.491 383.873 365.926 385.473 369.351 388.48C372.776 391.487 374.937 395.677 375.4 400.21C375.514 402.522 375.157 404.833 374.35 407.002C373.543 409.172 372.303 411.155 370.706 412.831C369.109 414.507 367.189 415.841 365.06 416.752C362.932 417.663 360.64 418.132 358.325 418.13H264.387C262.174 418.206 260.076 419.138 258.537 420.731C256.998 422.323 256.137 424.451 256.137 426.665C256.137 428.879 256.998 431.007 258.537 432.6C260.076 434.192 262.174 435.124 264.387 435.2H358.295C362.926 435.198 367.508 434.255 371.762 432.427C376.017 430.599 379.855 427.926 383.044 424.568C386.233 421.211 388.705 417.241 390.311 412.899C391.917 408.557 392.622 403.933 392.385 399.31C392.385 399.19 392.335 399.08 392.335 398.96L466.607 336.78C468.34 335.33 470.342 334.236 472.499 333.56C474.655 332.885 476.924 332.641 479.175 332.842C481.426 333.044 483.616 333.687 485.618 334.735C487.62 335.783 489.396 337.215 490.844 338.95C493.553 342.247 494.958 346.423 494.792 350.686C494.626 354.95 492.901 359.004 489.944 362.08L383.422 470.45C379.053 474.954 373.119 477.607 366.847 477.86H212.632C200.635 477.848 188.747 480.15 177.622 484.64L150.484 495.54C148.447 496.428 146.836 498.076 145.994 500.132C145.151 502.189 145.144 504.493 145.974 506.554C146.803 508.616 148.403 510.273 150.435 511.174C152.467 512.076 154.771 512.149 156.856 511.38L183.974 500.47C193.075 496.81 202.793 494.93 212.602 494.93H367.028C377.794 494.62 388.024 490.159 395.576 482.48L502.107 374.05C508.278 367.767 511.795 359.353 511.932 350.549C512.068 341.745 508.812 333.226 502.838 326.756C496.865 320.285 488.631 316.359 479.842 315.791C471.053 315.222 462.382 318.054 455.623 323.7L412.041 360.2L409.48 344.52C409.165 342.667 409.289 340.766 409.843 338.97C410.398 337.174 411.366 335.533 412.671 334.18L452.683 293.53C456.446 289.724 459.071 284.943 460.262 279.726C461.454 274.508 461.163 269.062 459.425 264C457.885 259.152 455.027 254.828 451.168 251.513C447.31 248.198 442.604 246.022 437.578 245.23L381.762 236.78C380.088 236.503 378.506 235.822 377.155 234.796C375.804 233.769 374.725 232.429 374.01 230.89L348.832 177.82C346.721 173.104 343.29 169.1 338.953 166.29C334.616 163.48 329.558 161.985 324.39 161.985C319.222 161.985 314.164 163.48 309.827 166.29C305.49 169.1 302.059 173.104 299.948 177.82L274.81 230.82C274.102 232.381 273.02 233.744 271.662 234.79C270.303 235.837 268.709 236.533 267.018 236.82L211.222 245.27C206.196 246.055 201.488 248.223 197.624 251.531C193.761 254.839 190.894 259.156 189.345 264C187.617 269.05 187.33 274.482 188.518 279.685C189.705 284.889 192.319 289.659 196.067 293.46L236.079 334.06C237.369 335.403 238.331 337.027 238.89 338.803C239.449 340.579 239.589 342.461 239.3 344.3L238.05 351.75C232.705 350.454 227.224 349.806 221.725 349.82C187.315 349.82 133.359 358.04 62.2482 429.13C45.7034 445.66 3.62106 479.37 3.23095 479.7C1.85244 480.806 0.851114 482.313 0.365012 484.012C-0.121089 485.711 -0.0680245 487.518 0.51689 489.186C1.1018 490.854 2.18976 492.299 3.63077 493.322C5.07179 494.346 6.79488 494.897 8.56251 494.9L8.5325 494.93ZM248.263 322.18L208.201 281.58C206.683 280.01 205.632 278.048 205.164 275.915C204.696 273.783 204.83 271.562 205.55 269.5C206.09 267.637 207.147 265.965 208.599 264.679C210.051 263.392 211.838 262.543 213.753 262.23L269.589 253.78C274.013 253.062 278.197 251.281 281.782 248.592C285.368 245.903 288.247 242.385 290.175 238.34L315.372 185.25C316.102 183.462 317.348 181.931 318.952 180.854C320.555 179.777 322.443 179.201 324.375 179.201C326.307 179.201 328.195 179.777 329.798 180.854C331.402 181.931 332.648 183.462 333.378 185.25L358.615 238.45C360.548 242.477 363.425 245.976 367.003 248.651C370.58 251.325 374.751 253.095 379.161 253.81L435.047 262.26C436.956 262.575 438.737 263.424 440.184 264.709C441.63 265.994 442.683 267.662 443.22 269.52C443.932 271.581 444.059 273.798 443.587 275.927C443.116 278.056 442.064 280.012 440.549 281.58L400.537 322.21C397.368 325.477 395.004 329.437 393.634 333.777C392.264 338.117 391.925 342.717 392.645 347.21L396.916 372.9L386.283 381.79C382.938 377.142 378.528 373.362 373.422 370.768C368.316 368.174 362.662 366.841 356.935 366.88H269.939C268.173 366.94 266.439 366.393 265.028 365.33C261.692 362.6 258.105 360.193 254.315 358.14L256.165 347.14C256.881 342.646 256.54 338.046 255.168 333.707C253.797 329.367 251.432 325.407 248.263 322.14V322.18Z" fill="#4E4E4E"></path>
</svg>