<svg class="se_icon"
    xmlns="http://www.w3.org/2000/svg" viewBox="0 0 512 512" height="100%" width="100%">
    <path d="M175.815 102.978C173.368 94.5779 170.473 79.4879 175.815 62.7579C178.161 55.4079 181.828 43.9279 192.147 38.6379C195.569 36.8779 198.555 36.3979 214.429 36.4379C243.882 36.5179 243.354 38.1779 247.843 36.4379C263.799 30.2479 263.504 11.8279 276.057 10.1179C282.984 9.17788 288.712 14.0079 295.354 19.6279C299.589 23.1879 308.232 31.4179 324.31 82.4979C326.93 90.7979 328.179 95.2979 325.803 99.3179C320.054 108.998 298.381 105.828 288.671 104.438C274.727 102.438 251.936 96.7379 226.292 78.1179C219.9 83.3712 213.468 88.7312 206.995 94.1979C198.87 101.045 190.951 107.868 183.24 114.668L175.815 102.978Z" class="highlight"></path>
    <path d="M5.50806 425.368L37.7846 419.168L56.4518 385.548L81.8424 416.838L122 426.138L95.2587 457.928L100.774 501.328L62.1799 481.178L28.3291 496.678C28.0651 482.985 27.8044 469.292 27.5471 455.598L5.50806 425.368Z" class="highlight"></path>
    <path d="M184.722 430.018L224.035 430.788L249.326 396.069L261.057 421.488L301.204 430.788L274.443 462.578L279.947 505.978L241.354 485.828L207.503 501.328C207.239 487.635 220.157 476.272 219.899 462.578L184.722 430.018Z" class="highlight"></path>
    <path d="M381.914 436.018L423.495 436.788L444.85 396.069L458.238 427.488L498.385 436.788L471.613 468.568L477.128 511.978L438.585 491.798L404.735 507.298L403.942 466.218L381.914 436.018Z" class="highlight"></path>
    <path d="M386.192 43.6977C388.239 43.6977 390.202 44.4984 391.65 45.9237C393.097 47.349 393.91 49.2821 393.91 51.2977C393.905 53.3117 393.09 55.2418 391.644 56.6659C390.197 58.0901 388.237 58.8925 386.192 58.8977C385.178 58.8977 384.174 58.7012 383.238 58.3192C382.301 57.9373 381.45 57.3775 380.734 56.6717C380.017 55.966 379.448 55.1282 379.06 54.2061C378.673 53.2841 378.473 52.2958 378.473 51.2977C378.473 50.2997 378.673 49.3114 379.06 48.3893C379.448 47.4673 380.017 46.6294 380.734 45.9237C381.45 45.218 382.301 44.6582 383.238 44.2762C384.174 43.8943 385.178 43.6977 386.192 43.6977Z" class="highlight"></path>
    <path d="M386.192 74.0577C387.21 74.0564 388.218 74.2533 389.158 74.6372C390.098 75.021 390.952 75.5842 391.671 76.2943C392.389 77.0044 392.958 77.8474 393.344 78.7747C393.73 79.7021 393.926 80.6955 393.921 81.6977C393.921 83.2009 393.468 84.6702 392.62 85.92C391.772 87.1699 390.566 88.144 389.156 88.7192C387.745 89.2944 386.193 89.4449 384.696 89.1517C383.199 88.8584 381.823 88.1346 380.744 87.0717C379.664 86.0088 378.929 84.6547 378.631 83.1804C378.334 81.7062 378.486 80.1781 379.071 78.7893C379.655 77.4006 380.644 76.2137 381.914 75.3786C383.183 74.5435 384.675 74.0977 386.202 74.0977L386.192 74.0577Z" class="highlight"></path>
    <path d="M401.66 58.8477C403.709 58.8477 405.675 59.6495 407.125 61.0767C408.574 62.5038 409.388 64.4394 409.388 66.4577C409.383 68.4735 408.567 70.405 407.118 71.8294C405.67 73.2539 403.707 74.0551 401.66 74.0577C399.613 74.0551 397.652 73.2535 396.205 71.8288C394.758 70.4041 393.944 68.4726 393.941 66.4577C393.941 64.4412 394.754 62.5071 396.201 61.0802C397.648 59.6533 399.612 58.8504 401.66 58.8477Z" class="highlight"></path>
    <path d="M370.775 58.8477C372.824 58.8477 374.79 59.6495 376.24 61.0767C377.689 62.5038 378.503 64.4394 378.503 66.4577C378.498 68.4735 377.682 70.405 376.233 71.8294C374.785 73.2539 372.822 74.0551 370.775 74.0577C368.728 74.0551 366.766 73.2535 365.319 71.8288C363.873 70.4041 363.058 68.4726 363.056 66.4577C363.056 64.4412 363.869 62.5071 365.316 61.0802C366.763 59.6533 368.726 58.8504 370.775 58.8477Z" class="highlight"></path>
    <path d="M45.2871 146.288C47.3352 146.29 49.2985 147.093 50.7457 148.52C52.193 149.947 53.0059 151.881 53.0059 153.898C53.0059 155.913 52.1927 157.846 50.7451 159.272C49.2976 160.697 47.3343 161.498 45.2871 161.498C43.2417 161.492 41.2815 160.69 39.8351 159.266C38.3887 157.842 37.5738 155.912 37.5684 153.898C37.5684 151.881 38.3813 149.947 39.8286 148.52C41.2758 147.093 43.2391 146.29 45.2871 146.288Z" class="highlight"></path>
    <path d="M441.716 257.698C443.761 257.703 445.721 258.505 447.168 259.93C448.614 261.354 449.429 263.284 449.435 265.298C449.435 267.314 448.622 269.248 447.174 270.675C445.727 272.102 443.764 272.905 441.716 272.908C439.666 272.908 437.7 272.106 436.251 270.679C434.801 269.252 433.987 267.316 433.987 265.298C433.99 263.281 434.805 261.348 436.254 259.923C437.703 258.498 439.668 257.698 441.716 257.698Z" class="highlight"></path>
    <path d="M387.286 281.219C396.828 285.386 404.937 292.188 410.63 300.802C416.323 309.417 419.356 319.472 419.36 329.749V355.109C419.36 357.099 420.162 359.006 421.591 360.413C423.019 361.819 424.957 362.609 426.977 362.609C428.997 362.609 430.934 361.819 432.363 360.413C433.791 359.006 434.594 357.099 434.594 355.109V329.749C434.583 316.553 430.682 303.644 423.364 292.589C416.047 281.533 405.627 272.807 393.37 267.469L310.769 232.609C310.769 232.409 310.769 232.199 310.769 231.999V199.629C319.496 192.019 326.484 182.671 331.269 172.204C336.053 161.736 338.527 150.388 338.526 138.909V76.2394C338.528 59.8923 333.527 43.9239 324.175 30.4169C314.823 16.9098 301.555 6.49105 286.1 0.519418C284.648 -0.0420726 283.057 -0.151365 281.54 0.206305C280.023 0.563976 278.655 1.37137 277.619 2.51942L266.153 15.2794C262.826 18.8979 258.767 21.7911 254.237 23.7734C249.706 25.7556 244.805 26.7829 239.848 26.7894H217.23C205.618 26.8 194.484 31.3461 186.272 39.4301C178.059 47.514 173.44 58.4756 173.426 69.9094V138.899C173.425 150.385 175.9 161.739 180.689 172.212C185.477 182.684 192.47 192.037 201.204 199.649V231.999C201.204 232.309 201.204 232.609 201.204 232.919L119.7 267.809C107.144 272.991 96.425 281.713 88.8925 292.879C81.36 304.045 77.3505 317.155 77.3685 330.559V355.109C77.3685 357.099 78.171 359.006 79.5995 360.413C81.028 361.819 82.9655 362.609 84.9857 362.609C87.0059 362.609 88.9434 361.819 90.3719 360.413C91.8004 359.006 92.6029 357.099 92.6029 355.109V330.559C92.5845 320.087 95.7176 309.844 101.607 301.123C107.496 292.402 115.877 285.594 125.692 281.559L166.175 264.229C171.434 276.716 179.319 287.963 189.312 297.232C199.304 306.501 211.177 313.581 224.149 318.006C237.121 322.431 250.898 324.101 264.573 322.905C278.248 321.71 291.51 317.676 303.487 311.069C305.518 309.949 307.55 308.729 309.489 307.459C310.973 306.29 311.959 304.616 312.254 302.768C312.549 300.919 312.131 299.029 311.082 297.468C310.034 295.907 308.431 294.788 306.588 294.331C304.744 293.875 302.795 294.113 301.121 294.999C299.475 296.069 297.769 297.089 296.043 297.999C285.924 303.578 274.718 306.979 263.166 307.979C251.613 308.979 239.977 307.554 229.025 303.799C218.073 300.044 208.055 294.045 199.631 286.196C191.208 278.348 184.571 268.829 180.16 258.269L203.722 248.179C207.261 259.122 214.251 268.669 223.676 275.433C233.102 282.197 244.472 285.827 256.135 285.795C267.798 285.762 279.147 282.07 288.534 275.253C297.92 268.437 304.855 258.851 308.332 247.889L331.935 257.889C329.552 263.69 326.484 269.195 322.794 274.289C322.213 275.096 321.799 276.008 321.577 276.973C321.354 277.937 321.326 278.935 321.494 279.91C321.663 280.885 322.025 281.818 322.56 282.655C323.095 283.492 323.792 284.218 324.612 284.789C325.432 285.361 326.358 285.769 327.337 285.988C328.317 286.208 329.33 286.235 330.321 286.069C331.311 285.903 332.258 285.546 333.108 285.02C333.959 284.493 334.695 283.806 335.276 282.999C339.573 277.033 343.162 270.601 345.971 263.829L387.286 281.219ZM188.661 138.899V117.269C192.113 116.604 195.451 115.456 198.573 113.859C203.233 111.46 207.324 108.117 210.578 104.049C211.24 103.281 211.737 102.388 212.041 101.426C212.345 100.463 212.449 99.4503 212.346 98.4475C212.243 97.4447 211.937 96.4725 211.444 95.5891C210.951 94.7056 210.282 93.9291 209.478 93.3058C208.673 92.6824 207.75 92.2252 206.762 91.9613C205.774 91.6974 204.742 91.6323 203.728 91.7698C202.714 91.9074 201.738 92.2448 200.86 92.7619C199.981 93.279 199.217 93.9652 198.614 94.7794C196.685 97.1761 194.262 99.1428 191.504 100.549C190.575 101.026 189.611 101.434 188.62 101.769V69.9094C188.631 62.4531 191.645 55.3053 197 50.0337C202.356 44.7622 209.617 41.7974 217.189 41.7894H239.787C246.886 41.7791 253.905 40.3057 260.39 37.464C266.876 34.6222 272.686 30.4751 277.446 25.2894L285.318 16.5494C296.743 21.9354 306.38 30.4039 313.11 40.9705C319.839 51.537 323.384 63.7673 323.332 76.2394V91.5594C313.748 95.0597 303.604 96.8445 293.382 96.8294C270.981 96.8777 249.443 88.3297 233.338 72.9994C232.626 72.2806 231.774 71.7099 230.834 71.3211C229.894 70.9324 228.884 70.7335 227.864 70.7362C226.844 70.7389 225.836 70.9433 224.898 71.3371C223.959 71.7309 223.111 72.3061 222.403 73.0288C221.695 73.7514 221.142 74.6066 220.776 75.5438C220.409 76.481 220.238 77.481 220.272 78.4845C220.306 79.4881 220.544 80.4747 220.972 81.386C221.4 82.2972 222.01 83.1145 222.765 83.7894C241.696 101.84 267.029 111.91 293.382 111.859C303.519 111.873 313.601 110.39 323.292 107.459C323.292 107.909 323.292 138.929 323.292 138.929C323.292 156.511 316.199 173.372 303.573 185.804C290.946 198.235 273.822 205.219 255.966 205.219C238.11 205.219 220.986 198.235 208.36 185.804C195.734 173.372 188.64 156.511 188.64 138.929L188.661 138.899ZM255.996 270.899C246.351 270.888 237.042 267.411 229.815 261.122C222.588 254.832 217.94 246.163 216.743 236.739C216.54 235.154 216.438 233.557 216.438 231.959V210.229C228.568 216.761 242.171 220.184 255.996 220.184C269.822 220.184 283.425 216.761 295.555 210.229V231.999C295.539 242.324 291.366 252.221 283.95 259.52C276.535 266.82 266.482 270.926 255.996 270.939V270.899Z" fill="#4E4E4E"></path>
    <path d="M319.077 420.609L281.905 415.299L265.289 382.139C264.44 380.444 263.126 379.016 261.495 378.018C259.864 377.02 257.983 376.49 256.062 376.49C254.142 376.49 252.261 377.02 250.63 378.018C248.999 379.016 247.685 380.444 246.836 382.139L230.21 415.299L193.028 420.609C191.127 420.882 189.342 421.673 187.874 422.892C186.406 424.111 185.313 425.71 184.72 427.509C184.126 429.307 184.055 431.233 184.514 433.069C184.974 434.905 185.946 436.578 187.32 437.899L214.214 463.699L207.866 500.139C207.543 502.003 207.755 503.918 208.478 505.668C209.202 507.419 210.408 508.936 211.961 510.048C213.513 511.159 215.35 511.822 217.265 511.96C219.18 512.098 221.095 511.706 222.796 510.829L256.037 493.619L289.278 510.829C290.761 511.594 292.409 511.996 294.082 511.999C295.582 511.997 297.063 511.673 298.423 511.049C299.782 510.426 300.987 509.518 301.954 508.389C302.921 507.26 303.626 505.937 304.021 504.512C304.415 503.088 304.49 501.595 304.239 500.139L297.891 463.699L324.785 437.899C326.163 436.581 327.138 434.908 327.6 433.072C328.063 431.236 327.993 429.308 327.4 427.509C326.807 425.709 325.714 424.109 324.245 422.89C322.776 421.67 320.989 420.88 319.087 420.609H319.077ZM285.389 454.779C284.188 455.929 283.291 457.349 282.776 458.918C282.261 460.487 282.143 462.156 282.433 463.779L287.511 493.019L260.831 479.209C259.354 478.446 257.711 478.047 256.042 478.047C254.374 478.047 252.731 478.446 251.254 479.209L224.593 492.999L229.672 463.759C229.958 462.135 229.837 460.466 229.32 458.898C228.803 457.33 227.906 455.909 226.706 454.759L205.144 433.999L234.973 429.729C236.624 429.493 238.192 428.865 239.541 427.9C240.891 426.935 241.983 425.662 242.722 424.189L256.057 397.579L269.393 424.189C270.133 425.663 271.226 426.937 272.578 427.902C273.93 428.868 275.499 429.495 277.152 429.729L306.971 433.999L285.389 454.779Z" fill="#4E4E4E"></path>
    <path d="M134.833 420.609L97.6607 415.299L81.0451 382.139C80.1957 380.444 78.8814 379.016 77.2507 378.018C75.6201 377.02 73.7383 376.49 71.8181 376.49C69.898 376.49 68.0162 377.02 66.3856 378.018C64.7549 379.016 63.4406 380.444 62.5912 382.139L45.9654 415.299L8.80375 420.609C6.90411 420.884 5.12018 421.676 3.65337 422.895C2.18657 424.115 1.09529 425.714 0.502733 427.513C-0.0898213 429.311 -0.160051 431.236 0.299969 433.072C0.75999 434.907 1.73194 436.579 3.1061 437.899L29.9998 463.699L23.6522 500.139C23.3289 502.003 23.541 503.918 24.2645 505.668C24.9879 507.419 26.194 508.936 27.7466 510.048C29.2992 511.159 31.1365 511.822 33.051 511.96C34.9656 512.098 36.8813 511.706 38.5818 510.829L71.8232 493.619L105.065 510.829C106.547 511.594 108.195 511.996 109.869 511.999C111.368 511.997 112.849 511.673 114.209 511.049C115.568 510.426 116.773 509.518 117.74 508.389C118.707 507.26 119.412 505.937 119.807 504.512C120.201 503.088 120.276 501.595 120.025 500.139L113.677 463.699L140.571 437.899C141.949 436.581 142.924 434.908 143.386 433.072C143.849 431.236 143.779 429.308 143.186 427.509C142.593 425.709 141.5 424.109 140.031 422.89C138.562 421.67 136.775 420.88 134.873 420.609H134.833ZM101.144 454.779C99.9437 455.929 99.0468 457.349 98.5317 458.918C98.0165 460.487 97.8988 462.156 98.1888 463.779L103.267 493.019L76.6068 479.149C75.1298 478.386 73.4865 477.987 71.8181 477.987C70.1498 477.987 68.5065 478.386 67.0295 479.149L40.349 492.999L45.4272 463.759C45.7132 462.135 45.5926 460.466 45.0759 458.898C44.5591 457.33 43.6617 455.909 42.4615 454.759L20.91 433.999L50.7287 429.729C52.3801 429.495 53.9485 428.868 55.2987 427.902C56.6488 426.937 57.7399 425.663 58.4779 424.189L71.8131 397.579L85.1584 424.189C85.8956 425.663 86.9866 426.938 88.3369 427.903C89.6871 428.869 91.256 429.495 92.9076 429.729L122.726 433.999L101.144 454.779Z" fill="#4E4E4E"></path>
    <path d="M511.497 427.509C510.912 425.706 509.822 424.102 508.352 422.882C506.883 421.661 505.093 420.873 503.189 420.609L466.028 415.299L449.402 382.139C448.552 380.444 447.238 379.016 445.607 378.018C443.977 377.02 442.095 376.49 440.175 376.49C438.255 376.49 436.373 377.02 434.742 378.018C433.112 379.016 431.797 380.444 430.948 382.139L414.332 415.299L377.16 420.609C375.259 420.88 373.472 421.67 372.003 422.89C370.533 424.109 369.44 425.709 368.847 427.509C368.254 429.308 368.185 431.236 368.647 433.072C369.109 434.908 370.085 436.581 371.463 437.899L398.357 463.699L392.009 500.139C391.686 502.003 391.898 503.918 392.621 505.668C393.345 507.419 394.551 508.936 396.103 510.048C397.656 511.159 399.493 511.822 401.408 511.96C403.322 512.098 405.238 511.706 406.939 510.829L440.18 493.619L473.421 510.829C475.12 511.714 477.037 512.11 478.953 511.972C480.87 511.834 482.708 511.168 484.258 510.049C485.811 508.939 487.016 507.421 487.735 505.669C488.453 503.916 488.656 502 488.32 500.139L481.973 463.699L508.887 437.899C510.267 436.582 511.243 434.91 511.703 433.072C512.163 431.235 512.088 429.307 511.487 427.509H511.497ZM469.531 454.779C468.331 455.929 467.434 457.35 466.917 458.918C466.4 460.486 466.28 462.155 466.566 463.779L471.644 493.019L444.964 479.209C443.487 478.446 441.843 478.047 440.175 478.047C438.507 478.047 436.863 478.446 435.386 479.209L408.706 492.999L413.784 463.759C414.074 462.136 413.956 460.467 413.441 458.898C412.926 457.329 412.029 455.909 410.828 454.759L389.267 433.999L419.085 429.729C420.737 429.495 422.306 428.869 423.656 427.903C425.006 426.938 426.097 425.663 426.835 424.189L440.18 397.579L453.515 424.189C454.253 425.663 455.344 426.937 456.694 427.902C458.044 428.868 459.613 429.495 461.264 429.729L491.083 433.999L469.531 454.779Z" fill="#4E4E4E"></path>
</svg>